# File created by Blade
# Date/Time:  Wed Jan 21 16:33:30 2015
# Frame Rate: 120.000 fps
#------------------------------------------------------
:FULLY-SPECIFIED
:DEGREES
677
root 27.540451 25.046068 -25.604292 -87.648712 91.579437 -13.325188
Spine -50.396256 0.280703 3.563934
Head -74.423235 2.822882 2.845062
LeftShoulder -21.899120 -63.850616 54.596401
LeftArm 32.556117 -38.523270 10.544801
LeftForeArm -24.363204 0.000000 7.522330
LeftHand -4.319567 -0.000000 93.515424
LeftHandThumb1 -26.253704 0.000000 33.147579
RightShoulder -11.070740 26.936533 -38.693206
RightArm 4.351143 70.911263 -30.567839
RightForeArm -16.318817 -0.000000 8.441298
RightHand -2.431268 0.000000 -97.904405
RightHandThumb1 -24.326973 -0.000000 -32.862282
LeftUpLeg 12.003882 4.940785 10.370645
LeftLeg 84.514242 -0.000000 -0.000000
LeftFoot -41.608873 27.039875 -17.331153
LeftToeBase 23.041615 -0.000000 -0.000000
RightUpLeg 11.577043 4.736243 -10.501287
RightLeg 83.803233 -0.000000 -0.000000
RightFoot -40.441270 -29.466495 23.243173
RightToeBase 21.736350 -0.000000 -0.000000
678
root 27.530251 25.056164 -25.621858 -86.429145 91.622912 -12.119415
Spine -50.389748 0.281309 3.550198
Head -74.522612 2.776000 2.762854
LeftShoulder -22.080097 -63.812841 54.726607
LeftArm 32.550571 -38.535694 10.519879
LeftForeArm -24.436023 -0.000000 7.484231
LeftHand -4.307118 -0.000000 93.449111
LeftHandThumb1 -26.253704 0.000000 33.147579
RightShoulder -11.169070 26.876502 -38.745036
RightArm 4.381833 70.866680 -30.606000
RightForeArm -16.145296 -0.000000 8.256564
RightHand -2.480645 0.000000 -97.863155
RightHandThumb1 -24.326973 -0.000000 -32.862282
LeftUpLeg 11.990216 4.986961 10.375281
LeftLeg 84.478565 -0.000000 -0.000000
LeftFoot -41.555649 26.960127 -17.334831
LeftToeBase 22.960322 -0.000000 -0.000000
RightUpLeg 11.610676 4.786061 -10.472539
RightLeg 83.724922 -0.000000 -0.000000
RightFoot -40.395755 -29.512190 23.313738
RightToeBase 21.672187 -0.000000 -0.000000
679
root 27.522115 25.067835 -25.637841 -84.433693 91.661079 -10.140865
Spine -50.409259 0.260778 3.526934
Head -74.409916 2.823689 2.681833
LeftShoulder -22.128629 -63.752717 54.770568
LeftArm 32.504703 -38.576236 10.526527
LeftForeArm -24.435731 -0.000000 7.440079
LeftHand -4.323441 -0.000000 93.392368
LeftHandThumb1 -26.253704 0.000000 33.147579
RightShoulder -11.227968 26.775513 -38.781003
RightArm 4.291432 70.889131 -30.737006
RightForeArm -15.997983 -0.000000 8.106370
RightHand -2.391975 -0.000000 -97.754011
RightHandThumb1 -24.326973 -0.000000 -32.862282
LeftUpLeg 11.979237 5.018624 10.408978
LeftLeg 84.435813 -0.000000 -0.000000
LeftFoot -41.531909 26.895161 -17.280717
LeftToeBase 23.036734 -0.000000 -0.000000
RightUpLeg 11.656817 4.806252 -10.440937
RightLeg 83.635331 -0.000000 -0.000000
RightFoot -40.351550 -29.548314 23.375465
RightToeBase 21.924577 -0.000000 -0.000000
680
root 27.512235 25.078721 -25.655453 -82.481694 91.723437 -8.240333
Spine -50.473494 0.236103 3.482961
Head -74.400002 2.903845 2.522084
LeftShoulder -22.214830 -63.744016 54.887441
LeftArm 32.412611 -38.462714 10.611178
LeftForeArm -24.497958 -0.000000 7.366163
LeftHand -4.504558 -0.000000 93.351041
LeftHandThumb1 -26.253704 0.000000 33.147579
RightShoulder -11.276903 26.682677 -38.853254
RightArm 4.183441 70.892535 -30.834976
RightForeArm -15.857429 -0.000000 7.995127
RightHand -2.425048 -0.000000 -97.652474
RightHandThumb1 -24.326973 -0.000000 -32.862282
LeftUpLeg 11.921895 5.051514 10.395514
LeftLeg 84.383513 -0.000000 -0.000000
LeftFoot -41.480571 26.875935 -17.262886
LeftToeBase 23.056280 -0.000000 -0.000000
RightUpLeg 11.664906 4.817077 -10.440227
RightLeg 83.546971 -0.000000 -0.000000
RightFoot -40.316127 -29.582007 23.485321
RightToeBase 21.741536 -0.000000 -0.000000
681
root 27.498160 25.087731 -25.678331 -81.771803 91.814436 -7.657189
Spine -50.644911 0.243220 3.433616
Head -74.366656 2.936548 2.456752
LeftShoulder -22.230237 -63.677934 54.936495
LeftArm 32.314339 -38.391298 10.697505
LeftForeArm -24.628577 -0.000000 7.253814
LeftHand -4.562575 -0.000000 93.240871
LeftHandThumb1 -26.253704 0.000000 33.147579
RightShoulder -11.263787 26.641491 -38.916461
RightArm 4.146363 70.868238 -30.888681
RightForeArm -15.737884 -0.000000 7.873238
RightHand -2.301070 -0.000000 -97.206677
RightHandThumb1 -24.326973 -0.000000 -32.862282
LeftUpLeg 11.797935 5.125543 10.317890
LeftLeg 84.314185 -0.000000 -0.000000
LeftFoot -41.427148 26.887964 -17.248690
LeftToeBase 23.037308 -0.000000 -0.000000
RightUpLeg 11.577288 4.857263 -10.484474
RightLeg 83.467947 -0.000000 -0.000000
RightFoot -40.270558 -29.604613 23.594514
RightToeBase 21.845948 -0.000000 -0.000000
682
root 27.491052 25.102585 -25.692581 -78.213818 91.844783 -4.084604
Spine -50.639819 0.174928 3.456570
Head -74.413456 2.985776 2.337468
LeftShoulder -22.250421 -63.672630 54.963132
LeftArm 32.223508 -38.319946 10.817442
LeftForeArm -24.751463 -0.000000 7.121889
LeftHand -4.610869 -0.000000 93.179653
LeftHandThumb1 -26.253704 0.000000 33.147579
RightShoulder -11.289191 26.571804 -38.967893
RightArm 4.071519 71.018207 -30.977054
RightForeArm -15.696732 -0.000000 7.859982
RightHand -2.342433 0.000000 -97.119658
RightHandThumb1 -24.326973 -0.000000 -32.862282
LeftUpLeg 11.805112 5.101871 10.389979
LeftLeg 84.273504 -0.000000 -0.000000
LeftFoot -41.408170 26.833079 -17.191225
LeftToeBase 23.116903 -0.000000 -0.000000
RightUpLeg 11.687913 4.828886 -10.412674
RightLeg 83.343752 -0.000000 -0.000000
RightFoot -40.214695 -29.655496 23.691535
RightToeBase 21.786713 -0.000000 -0.000000
683
root 27.482819 25.116333 -25.709610 -75.303039 91.903170 -1.180192
Spine -50.657467 0.113622 3.463721
Head -74.492850 3.007764 2.286972
LeftShoulder -22.264589 -63.618164 54.971518
LeftArm 32.140150 -38.258513 10.951522
LeftForeArm -24.910841 -0.000000 6.936525
LeftHand -4.587389 -0.000000 93.090581
LeftHandThumb1 -26.253704 0.000000 33.147579
RightShoulder -11.292664 26.601384 -39.020101
RightArm 4.091062 71.041139 -31.005030
RightForeArm -15.647468 -0.000000 7.798029
RightHand -2.428294 -0.000000 -97.282459
RightHandThumb1 -24.326973 -0.000000 -32.862282
LeftUpLeg 11.787287 5.090678 10.414044
LeftLeg 84.231640 -0.000000 -0.000000
LeftFoot -41.344376 26.806471 -17.118942
LeftToeBase 23.072154 -0.000000 -0.000000
RightUpLeg 11.765223 4.794010 -10.400895
RightLeg 83.224073 -0.000000 -0.000000
RightFoot -40.158485 -29.675516 23.735184
RightToeBase 21.812252 -0.000000 -0.000000
684
root 27.473849 25.130842 -25.727088 -73.093177 91.962656 1.029350
Spine -50.674344 0.081513 3.464997
Head -74.570718 3.122135 2.132827
LeftShoulder -22.178481 -63.543641 54.894646
LeftArm 31.982821 -38.170356 11.181674
LeftForeArm -25.165533 0.000000 6.737112
LeftHand -4.588216 -0.000000 93.027912
LeftHandThumb1 -26.253704 0.000000 33.147579
RightShoulder -11.296635 26.615260 -39.048279
RightArm 4.151814 71.080291 -31.030911
RightForeArm -15.560470 -0.000000 7.725308
RightHand -2.370929 -0.000000 -97.132436
RightHandThumb1 -24.326973 -0.000000 -32.862282
LeftUpLeg 11.780188 5.083824 10.430518
LeftLeg 84.196391 -0.000000 -0.000000
LeftFoot -41.284222 26.719744 -17.083063
LeftToeBase 23.064564 -0.000000 -0.000000
RightUpLeg 11.844933 4.773844 -10.394641
RightLeg 83.107271 -0.000000 -0.000000
RightFoot -40.075079 -29.690340 23.702134
RightToeBase 22.018617 -0.000000 -0.000000
685
root 27.466132 25.147193 -25.742035 -70.755488 92.017464 3.395131
Spine -50.640250 0.039163 3.469375
Head -74.638175 3.144145 2.028535
LeftShoulder -22.241178 -63.514177 54.927122
LeftArm 31.947232 -38.153679 11.246184
LeftForeArm -25.259136 -0.000000 6.581996
LeftHand -4.633586 -0.000000 92.923984
LeftHandThumb1 -26.253704 0.000000 33.147579
RightShoulder -11.298905 26.540387 -39.075035
RightArm 3.899313 71.117754 -31.331712
RightForeArm -15.445721 -0.000000 7.671756
RightHand -2.393590 -0.000000 -96.983560
RightHandThumb1 -24.326973 -0.000000 -32.862282
LeftUpLeg 11.809934 5.090263 10.482387
LeftLeg 84.126311 -0.000000 -0.000000
LeftFoot -41.295821 26.674005 -17.107846
LeftToeBase 23.200586 -0.000000 -0.000000
RightUpLeg 11.962721 4.750392 -10.366162
RightLeg 82.988150 -0.000000 -0.000000
RightFoot -40.014683 -29.708321 23.684489
RightToeBase 21.683834 -0.000000 -0.000000
686
root 27.454588 25.162397 -25.759900 -69.854501 92.075061 4.280203
Spine -50.660844 0.037696 3.474465
Head -74.727425 3.217748 1.920972
LeftShoulder -22.388852 -63.490993 55.037008
LeftArm 31.950766 -38.108439 11.264904
LeftForeArm -25.318223 -0.000000 6.415571
LeftHand -4.700556 0.000000 92.801965
LeftHandThumb1 -26.253704 0.000000 33.147579
RightShoulder -11.312339 26.412734 -39.128387
RightArm 3.577668 71.149433 -31.636122
RightForeArm -15.266515 -0.000000 7.656967
RightHand -2.399667 -0.000000 -96.888613
RightHandThumb1 -24.326973 -0.000000 -32.862282
LeftUpLeg 11.801659 5.132562 10.494859
LeftLeg 84.063677 -0.000000 -0.000000
LeftFoot -41.242443 26.611494 -17.107192
LeftToeBase 23.164179 -0.000000 -0.000000
RightUpLeg 12.009753 4.758554 -10.373382
RightLeg 82.878918 -0.000000 -0.000000
RightFoot -39.958996 -29.712384 23.668463
RightToeBase 21.869883 -0.000000 -0.000000
687
root 27.443248 25.177034 -25.779525 -69.896412 92.145577 4.201517
Spine -50.720470 0.057207 3.464109
Head -74.762654 3.254790 1.866463
LeftShoulder -22.447382 -63.408915 55.060190
LeftArm 31.949046 -38.124827 11.282762
LeftForeArm -25.381276 -0.000000 6.251325
LeftHand -4.755513 -0.000000 92.669227
LeftHandThumb1 -26.253704 0.000000 33.147579
RightShoulder -11.240814 26.157242 -39.197954
RightArm 2.772004 71.082874 -32.343213
RightForeArm -15.006326 -0.000000 7.619468
RightHand -2.408874 0.000000 -96.841839
RightHandThumb1 -24.326973 -0.000000 -32.862282
LeftUpLeg 11.786439 5.195627 10.465227
LeftLeg 83.985119 -0.000000 -0.000000
LeftFoot -41.185145 26.581695 -17.087550
LeftToeBase 23.189624 -0.000000 -0.000000
RightUpLeg 12.023553 4.783907 -10.423862
RightLeg 82.786324 -0.000000 -0.000000
RightFoot -39.923553 -29.715711 23.674253
RightToeBase 21.816862 -0.000000 -0.000000
